<svg xmlns="http://www.w3.org/2000/svg" version="1.1" xmlns:xlink="http://www.w3.org/1999/xlink" xmlns:svgjs="http://svgjs.dev/svgjs" width="1500" height="223" viewBox="0 0 1500 223"><g transform="matrix(1,0,0,1,-0.9090909090909918,0.8426505473319565)"><svg viewBox="0 0 396 59" data-background-color="#ffffff" preserveAspectRatio="xMidYMid meet" height="223" width="1500" xmlns="http://www.w3.org/2000/svg" xmlns:xlink="http://www.w3.org/1999/xlink"><g id="tight-bounds" transform="matrix(1,0,0,1,0.2400000000000091,-0.2229434183524006)"><svg viewBox="0 0 395.52 59.44588683670478" height="59.44588683670478" width="395.52"><g><svg viewBox="0 0 395.52 59.44588683670478" height="59.44588683670478" width="395.52"><g><svg viewBox="0 0 395.52 59.44588683670478" height="59.44588683670478" width="395.52"><g id="textblocktransform"><svg viewBox="0 0 395.52 59.44588683670478" height="59.44588683670478" width="395.52" id="textblock"><g><svg viewBox="0 0 395.52 59.44588683670478" height="59.44588683670478" width="395.52"><g transform="matrix(1,0,0,1,0,0)"><svg width="395.52" viewBox="3.64 -37.55 249.81 37.55" height="59.44588683670478" data-palette-color="#c7d1db"><path d="M38.62-20.36L38.62-14.65Q38.62-11.45 37.51-8.76 36.4-6.08 34.45-4.14 32.5-2.2 29.81-1.1 27.12 0 23.97 0L23.97 0 6.84 0Q6.15 0 5.57-0.24 4.98-0.49 4.55-0.92 4.13-1.34 3.88-1.93 3.64-2.51 3.64-3.2L3.64-3.2 3.64-31.81Q3.64-32.47 3.88-33.06 4.13-33.64 4.55-34.08 4.98-34.52 5.57-34.77 6.15-35.01 6.84-35.01L6.84-35.01 23.97-35.01Q27.12-35.01 29.81-33.91 32.5-32.81 34.45-30.87 36.4-28.93 37.51-26.23 38.62-23.54 38.62-20.36L38.62-20.36ZM32.28-14.65L32.28-20.36Q32.28-22.22 31.68-23.75 31.08-25.29 29.98-26.38 28.88-27.47 27.36-28.06 25.83-28.66 23.97-28.66L23.97-28.66 9.99-28.66 9.99-6.35 23.97-6.35Q25.83-6.35 27.36-6.95 28.88-7.54 29.98-8.63 31.08-9.72 31.68-11.24 32.28-12.77 32.28-14.65L32.28-14.65ZM50.58-37.55L50.58-31.81 44.24-31.81 44.24-37.55 50.58-37.55ZM50.58-26.39L50.58 0 44.24 0 44.24-26.39 50.58-26.39ZM80.22-17.5L80.22 0 73.87 0 73.87-17.5Q73.87-18.75 73.21-19.4 72.55-20.04 71.26-20.04L71.26-20.04 63.01-20.04 63.01 0 56.66 0 56.66-23.24Q56.66-23.9 56.9-24.48 57.15-25.05 57.59-25.48 58.03-25.9 58.61-26.15 59.2-26.39 59.86-26.39L59.86-26.39 71.31-26.39Q72.63-26.39 74.14-25.93 75.65-25.46 77.02-24.44L77.02-24.44 77.02-26.39 85.62-26.39Q86.52-26.39 87.52-26.18 88.52-25.98 89.51-25.54 90.5-25.1 91.4-24.4 92.3-23.71 92.99-22.72 93.67-21.73 94.09-20.43 94.5-19.14 94.5-17.5L94.5-17.5 94.5 0 88.15 0 88.15-17.5Q88.15-18.75 87.53-19.4 86.91-20.04 85.62-20.04L85.62-20.04 79.9-20.04Q80.22-18.87 80.22-17.5L80.22-17.5ZM127.58-17.65L127.58-8.74Q127.58-7.42 127.12-5.9 126.65-4.37 125.62-3.06 124.58-1.76 122.91-0.88 121.23 0 118.84 0L118.84 0 107.39 0Q106.07 0 104.55-0.46 103.02-0.93 101.71-1.97 100.41-3 99.53-4.68 98.65-6.35 98.65-8.74L98.65-8.74Q98.65-10.06 99.11-11.6 99.58-13.13 100.62-14.44 101.65-15.75 103.33-16.63 105-17.5 107.39-17.5L107.39-17.5 118.84-17.5 118.84-11.45 107.39-11.45Q106.1-11.45 105.39-10.66 104.68-9.86 104.68-8.69L104.68-8.69Q104.68-7.45 105.5-6.75 106.32-6.05 107.44-6.05L107.44-6.05 118.84-6.05Q120.13-6.05 120.84-6.84 121.55-7.62 121.55-8.79L121.55-8.79 121.55-17.65Q121.55-18.9 120.78-19.63 120.01-20.36 118.84-20.36L118.84-20.36 104.9-20.36 104.9-26.39 118.84-26.39Q120.16-26.39 121.68-25.93 123.21-25.46 124.52-24.43 125.82-23.39 126.7-21.72 127.58-20.04 127.58-17.65L127.58-17.65ZM161.95-37.55L161.95-8.91Q161.95-7.28 161.54-5.97 161.12-4.66 160.44-3.67 159.76-2.69 158.85-1.99 157.95-1.29 156.96-0.85 155.97-0.42 154.96-0.21 153.95 0 153.04 0L153.04 0 141.59 0Q139.96 0 138.66-0.42 137.37-0.83 136.38-1.53 135.39-2.22 134.69-3.13 134-4.03 133.56-5.02 133.12-6.01 132.91-7.02 132.7-8.03 132.7-8.91L132.7-8.91 132.7-17.5Q132.7-19.95 133.6-21.64 134.49-23.34 135.82-24.4 137.15-25.46 138.71-25.93 140.27-26.39 141.59-26.39L141.59-26.39 153.04-26.39 153.04-20.04 141.64-20.04Q140.37-20.04 139.71-19.4 139.05-18.75 139.05-17.5L139.05-17.5 139.05-8.96Q139.05-7.67 139.7-7.01 140.35-6.35 141.59-6.35L141.59-6.35 153.04-6.35Q154.34-6.35 154.97-7.01 155.61-7.67 155.61-8.91L155.61-8.91 155.61-37.55 161.95-37.55ZM191.56-17.5L191.56 0 185.22 0 185.22-17.5Q185.22-18.75 184.56-19.4 183.9-20.04 182.6-20.04L182.6-20.04 174.35-20.04 174.35 0 168.01 0 168.01-23.24Q168.01-23.9 168.25-24.48 168.49-25.05 168.93-25.48 169.37-25.9 169.96-26.15 170.54-26.39 171.2-26.39L171.2-26.39 182.65-26.39Q183.97-26.39 185.49-25.93 187-25.46 188.37-24.44L188.37-24.44 188.37-26.39 196.96-26.39Q197.86-26.39 198.86-26.18 199.87-25.98 200.85-25.54 201.84-25.1 202.75-24.4 203.65-23.71 204.33-22.72 205.02-21.73 205.43-20.43 205.85-19.14 205.85-17.5L205.85-17.5 205.85 0 199.5 0 199.5-17.5Q199.5-18.75 198.88-19.4 198.25-20.04 196.96-20.04L196.96-20.04 191.25-20.04Q191.56-18.87 191.56-17.5L191.56-17.5ZM218.12-37.55L218.12-31.81 211.78-31.81 211.78-37.55 218.12-37.55ZM218.12-26.39L218.12 0 211.78 0 211.78-26.39 218.12-26.39ZM253.45-14.65L253.45 0 247.1 0 247.1-14.65Q247.1-15.89 246.67-16.88 246.25-17.87 245.51-18.58 244.78-19.29 243.79-19.67 242.8-20.04 241.66-20.04L241.66-20.04 230.55-20.04 230.55 0 224.2 0 224.2-23.24Q224.2-23.9 224.45-24.48 224.69-25.05 225.13-25.48 225.57-25.9 226.15-26.15 226.74-26.39 227.4-26.39L227.4-26.39 241.71-26.39Q242.9-26.39 244.23-26.12 245.56-25.85 246.87-25.26 248.18-24.66 249.36-23.74 250.54-22.83 251.46-21.52 252.38-20.21 252.91-18.51 253.45-16.8 253.45-14.65L253.45-14.65Z" opacity="1" transform="matrix(1,0,0,1,0,0)" fill="#c7d1db" class="wordmark-text-0" data-fill-palette-color="primary" id="text-0"></path></svg></g></svg></g></svg></g></svg></g></svg></g><defs></defs></svg><rect width="395.52" height="59.44588683670478" fill="none" stroke="none" visibility="hidden"></rect></g></svg></g></svg>